<svg width="283" height="256" viewBox="0 0 283 256" fill="none" xmlns="http://www.w3.org/2000/svg">
<path d="M282.486 165.962C280.272 131.45 265.477 98.9494 240.902 74.6168C252.988 67.1936 263.088 56.9439 270.332 44.7503C277.576 32.5568 281.747 18.785 282.486 4.62137C282.567 3.10153 282.606 1.57212 282.604 0.033136V0H282.486C281.683 0 280.886 0.0099408 280.087 0.033136C264.25 0.463092 248.826 5.18417 235.462 13.6927C222.097 22.2012 211.293 34.1781 204.203 48.3454C201.22 46.8632 198.18 45.4858 195.082 44.2134C160.668 30.1405 122.104 30.1405 87.689 44.2134C84.5917 45.4865 81.5516 46.8639 78.5685 48.3454C71.4778 34.1781 60.674 22.2012 47.3096 13.6927C33.9452 5.18417 18.5217 0.463092 2.68428 0.033136C1.88567 0.0099408 1.08817 0 0.285147 0H0.166957V0.033136C0.166957 1.57212 0.206722 3.10153 0.286251 4.62137C1.02413 18.7848 5.19413 32.5566 12.4371 44.7505C19.68 56.9444 29.7788 67.1949 41.8635 74.619C17.2891 98.9517 2.49339 131.453 0.279624 165.964C0.093319 168.959 0.000166577 171.983 0.000166577 175.034C-0.0345454 197.597 5.35631 219.838 15.7183 239.882C14.9409 233.991 15.7365 227.999 18.0244 222.515C20.3123 217.031 24.0109 212.25 28.7445 208.659C33.478 205.067 39.078 202.791 44.9755 202.064C50.873 201.337 56.858 202.183 62.3224 204.518C51.5383 208.08 42.1556 214.959 35.5144 224.172C28.8732 233.385 25.313 244.461 25.3424 255.818C25.38 255.875 25.423 255.937 25.4661 255.993C30.5525 249.118 37.1932 243.543 44.8459 239.725C46.7796 238.76 48.7717 237.918 50.8106 237.202C53.3544 236.298 55.9637 235.59 58.6155 235.083C66.6219 233.542 74.8734 233.833 82.7515 235.934C91.8132 238.349 100.082 243.101 106.731 249.714C106.793 249.772 106.85 249.825 106.906 249.885C106.963 249.946 107.026 250.005 107.082 250.065C110.477 253.377 114.928 255.389 119.656 255.749C124.385 256.109 129.089 254.795 132.947 252.037C133.847 251.394 134.693 250.678 135.474 249.894C137.351 248.02 138.839 245.793 139.854 243.342C140.868 240.891 141.389 238.264 141.386 235.611C141.382 238.264 141.903 240.892 142.918 243.343C143.933 245.794 145.422 248.021 147.3 249.895C148.081 250.679 148.926 251.395 149.827 252.038C153.684 254.797 158.389 256.111 163.117 255.75C167.846 255.39 172.297 253.378 175.691 250.066C175.749 250.005 175.802 249.948 175.867 249.886C175.932 249.825 175.978 249.776 176.043 249.715C182.264 243.541 189.9 238.981 198.285 236.431C206.671 233.881 215.553 233.419 224.158 235.085C226.809 235.591 229.418 236.299 231.961 237.203C234 237.919 235.992 238.761 237.925 239.726C245.579 243.546 252.22 249.122 257.306 256C257.349 255.943 257.391 255.882 257.43 255.824C257.457 244.468 253.896 233.393 247.255 224.181C240.614 214.968 231.233 208.089 220.45 204.524C225.914 202.19 231.899 201.344 237.797 202.071C243.694 202.798 249.294 205.073 254.028 208.665C258.761 212.257 262.46 217.038 264.748 222.522C267.036 228.006 267.831 233.997 267.054 239.888C277.416 219.844 282.807 197.603 282.771 175.039V175.039C282.771 171.987 282.676 168.961 282.486 165.962ZM113.687 90.2404L115.084 88.8487C115.084 88.8468 115.084 88.8449 115.085 88.8432C115.085 88.8415 115.086 88.8399 115.088 88.8385C115.089 88.8372 115.091 88.8362 115.092 88.8354C115.094 88.8347 115.096 88.8343 115.098 88.8343L116.209 87.7232C116.401 87.5369 116.609 87.3683 116.831 87.2195C123.676 81.373 132.383 78.1609 141.385 78.1609C150.387 78.1609 159.094 81.373 165.939 87.2195C166.161 87.3683 166.369 87.5369 166.561 87.7232L167.672 88.8343C167.674 88.8343 167.676 88.8347 167.678 88.8354C167.68 88.8362 167.681 88.8372 167.682 88.8385C167.684 88.8399 167.685 88.8415 167.686 88.8432C167.686 88.8449 167.687 88.8468 167.687 88.8487L169.083 90.2404C169.803 90.9636 170.208 91.943 170.207 92.9639C170.207 93.9847 169.801 94.9637 169.08 95.6862C168.359 96.4086 167.38 96.8155 166.359 96.8177C165.338 96.8199 164.358 96.4172 163.634 95.6979L161.653 93.7098C156.12 88.6412 148.888 85.8297 141.385 85.8297C133.881 85.8297 126.649 88.6412 121.116 93.7098L119.135 95.6979C118.411 96.4172 117.431 96.8199 116.41 96.8177C115.389 96.8155 114.41 96.4086 113.689 95.6862C112.968 94.9637 112.562 93.9847 112.562 92.9639C112.561 91.943 112.966 90.9636 113.686 90.2404H113.687ZM141.386 100.601C139.496 100.505 137.608 100.805 135.841 101.482C134.075 102.16 132.47 103.199 131.13 104.534L129.456 106.163C128.671 106.949 127.605 107.39 126.494 107.39C125.383 107.39 124.318 106.949 123.532 106.163C122.747 105.378 122.306 104.312 122.306 103.202C122.306 102.091 122.747 101.025 123.532 100.24L125.157 98.5774C125.253 98.4705 125.356 98.3705 125.466 98.2781L125.766 97.9931C125.819 97.9408 125.88 97.8962 125.946 97.8606C130.242 94.1645 135.722 92.1319 141.389 92.1319C147.056 92.1319 152.536 94.1645 156.832 97.8606C156.898 97.8962 156.958 97.9408 157.012 97.9931L157.311 98.2781C157.421 98.3705 157.525 98.4705 157.621 98.5774L159.245 100.24C160.031 101.025 160.472 102.091 160.472 103.202C160.472 104.312 160.031 105.378 159.245 106.163C158.46 106.949 157.394 107.39 156.284 107.39C155.173 107.39 154.107 106.949 153.322 106.163L151.645 104.534C150.304 103.199 148.699 102.159 146.932 101.482C145.165 100.804 143.275 100.504 141.386 100.601V100.601ZM148.117 114.794C148.117 116.125 147.722 117.427 146.982 118.534C146.243 119.641 145.192 120.503 143.962 121.013C142.732 121.522 141.378 121.656 140.072 121.396C138.767 121.136 137.567 120.495 136.626 119.554C135.685 118.612 135.043 117.413 134.784 116.107C134.524 114.802 134.657 113.448 135.167 112.218C135.676 110.988 136.539 109.937 137.646 109.198C138.753 108.458 140.054 108.063 141.386 108.063C143.171 108.063 144.883 108.772 146.145 110.035C147.408 111.297 148.117 113.009 148.117 114.794V114.794ZM89.9125 152.14C86.8115 149.037 84.8047 145.009 84.1953 140.665C83.5859 136.321 84.4071 131.897 86.5347 128.061C86.6452 127.866 86.7556 127.671 86.8661 127.476L121.847 147.668C121.736 147.863 121.626 148.058 121.515 148.253C119.935 150.883 117.776 153.119 115.202 154.791C112.628 156.463 109.708 157.527 106.662 157.901C103.616 158.276 100.524 157.952 97.6221 156.953C94.72 155.955 92.0834 154.309 89.9125 152.14V152.14ZM168.227 213.562C163.079 213.557 157.999 214.735 153.38 217.006C148.76 219.277 144.724 222.579 141.583 226.657C141.517 226.738 141.451 226.824 141.393 226.909C141.332 226.824 141.265 226.738 141.199 226.657C136.915 221.113 131.01 217.042 124.304 215.01C117.599 212.978 110.427 213.086 103.786 215.319C105.341 212.522 107.538 210.135 110.196 208.353C112.855 206.572 115.899 205.448 119.077 205.073C122.255 204.699 125.477 205.085 128.476 206.2C131.476 207.315 134.168 209.126 136.33 211.485C136.387 211.551 136.449 211.618 136.51 211.685C137.136 212.343 137.888 212.868 138.722 213.227C139.556 213.587 140.454 213.774 141.362 213.778C142.27 213.781 143.17 213.601 144.006 213.248C144.843 212.895 145.599 212.376 146.23 211.723C146.324 211.629 146.413 211.531 146.496 211.428C148.664 209.082 151.356 207.283 154.354 206.179C157.351 205.076 160.567 204.698 163.738 205.078C166.909 205.457 169.945 206.583 172.597 208.363C175.249 210.143 177.441 212.527 178.993 215.318C175.524 214.151 171.887 213.557 168.227 213.562ZM192.859 152.138C190.689 154.308 188.052 155.955 185.151 156.953C182.249 157.952 179.158 158.276 176.112 157.902C173.066 157.527 170.145 156.464 167.572 154.792C164.999 153.12 162.84 150.884 161.26 148.253C161.15 148.058 161.033 147.863 160.929 147.668L195.91 127.476C196.02 127.671 196.131 127.866 196.241 128.061C198.366 131.898 199.186 136.322 198.575 140.666C197.965 145.009 195.959 149.036 192.859 152.14V152.138Z" fill="url(#paint0_linear)"/>
<defs>
<linearGradient id="paint0_linear" x1="141.386" y1="0" x2="141.386" y2="256" gradientUnits="userSpaceOnUse">
<stop stop-color="#0099DD"/>
<stop offset="1" stop-color="#0D0E0F" stop-opacity="0"/>
</linearGradient>
</defs>
</svg>
